<svg xmlns="http://www.w3.org/2000/svg" width="1891" height="591" viewBox="0 0 1891 591" version="1.1"><path d="M 0 295.501 L 0 591.001 945.750 590.751 L 1891.500 590.500 1891.752 295.250 L 1892.003 0 946.002 0 L 0 0 0 295.501 M 0.493 296 C 0.493 458.525, 0.609 525.013, 0.750 443.750 C 0.891 362.488, 0.891 229.513, 0.750 148.250 C 0.609 66.988, 0.493 133.475, 0.493 296 M 460.500 185.621 C 438.024 187.638, 419.748 194.207, 402.500 206.469 C 347.763 245.384, 340.887 323.258, 387.959 371.155 C 404.032 387.510, 426.271 399.123, 449 403.030 C 459.138 404.773, 479.615 404.572, 489.725 402.631 C 498.717 400.904, 514.568 395.302, 521.870 391.270 C 540.846 380.791, 558.187 363.491, 567.602 345.647 C 571.113 338.992, 578 320.299, 578 317.424 C 578 316.229, 573.899 316, 552.513 316 L 527.027 316 525.586 319.447 C 521.023 330.370, 508.733 343.260, 497.601 348.800 C 469.954 362.560, 437.715 355.810, 419.091 332.364 C 401.580 310.319, 401.580 279.681, 419.091 257.636 C 437.715 234.190, 469.954 227.440, 497.601 241.200 C 508.733 246.740, 521.023 259.630, 525.586 270.553 L 527.027 274 552.593 274 L 578.159 274 577.466 270.750 C 575.052 259.425, 568.738 244.940, 561.681 234.537 C 556.275 226.568, 543.229 213.100, 535.019 207.014 C 523.054 198.144, 506.204 190.805, 490.500 187.623 C 482.984 186.101, 467.027 185.036, 460.500 185.621 M 798.045 186.092 C 786.384 188.378, 774.288 198.531, 769.900 209.715 C 767.935 214.722, 767.575 217.800, 767.219 232.600 C 766.892 246.176, 767.144 251.013, 768.439 256.067 C 775.694 284.386, 810.122 294.743, 832.073 275.211 C 837.510 270.373, 842.471 261.504, 843.771 254.301 C 844.858 248.275, 845.018 248.408, 836.259 248.087 C 828.982 247.821, 826 248.554, 826 250.607 C 826 251.417, 825.144 253.749, 824.097 255.790 C 815.202 273.135, 789.953 269.541, 785.971 250.362 C 785.259 246.928, 784.936 239.536, 785.172 232.052 C 785.643 217.113, 787.515 211.994, 794.200 207.362 C 797.866 204.821, 799.189 204.500, 805.992 204.500 C 812.856 204.500, 814.041 204.794, 817.348 207.317 C 821.572 210.538, 823.727 213.520, 825.448 218.526 L 826.653 222.033 833.389 213.986 L 840.125 205.939 837.999 202.498 C 833.184 194.708, 822.721 187.843, 812.789 185.960 C 806.955 184.854, 804.240 184.878, 798.045 186.092 M 978.500 186.348 C 967.027 189.332, 957.612 196.978, 952.440 207.513 L 949.500 213.500 949.500 235.500 L 949.500 257.500 952.345 263.297 C 964.320 287.699, 996.598 292.864, 1015.070 273.333 C 1020.920 267.147, 1025.032 258.893, 1025.307 252.785 L 1025.500 248.500 1016.779 248.211 L 1008.057 247.923 1007.400 250.711 C 1006.221 255.711, 1002.727 260.917, 998.659 263.736 C 995.200 266.134, 993.710 266.500, 987.422 266.500 C 980.980 266.500, 979.698 266.166, 975.913 263.500 C 973.570 261.850, 970.606 258.517, 969.327 256.093 C 967.174 252.015, 967 250.499, 967 235.811 C 967 223.744, 967.371 219.047, 968.548 216.232 C 975.814 198.840, 1001.164 200.176, 1006.956 218.256 L 1008.159 222.013 1014.580 214.290 C 1018.111 210.043, 1021 206.053, 1021 205.425 C 1021 203.504, 1014.749 196.257, 1010.223 192.931 C 1001.369 186.423, 988.487 183.750, 978.500 186.348 M 857 235 L 857 282 873.250 281.993 L 889.500 281.986 902.500 254.439 L 915.500 226.892 915.766 254.446 L 916.032 282 925.016 282 L 934 282 934 234.965 L 934 187.930 923.780 188.215 L 913.561 188.500 894.530 228.458 L 875.500 268.415 875.239 228.208 L 874.977 188 865.989 188 L 857 188 857 235 M 1033.776 196.546 C 1029.774 201.262, 1026.350 205.543, 1026.167 206.060 C 1025.968 206.621, 1032.313 207, 1041.917 207 L 1058 207 1058 244.500 L 1058 282 1067 282 L 1076 282 1076 244.530 L 1076 207.060 1088.750 206.780 L 1101.500 206.500 1101.500 197.500 L 1101.500 188.500 1071.276 188.235 L 1041.052 187.971 1033.776 196.546 M 1111 197.500 L 1111 207 1145.500 207 L 1180 207 1180 197.500 L 1180 188 1145.500 188 L 1111 188 1111 197.500 M 1197 234.975 L 1197 282 1205.989 282 L 1214.977 282 1215.239 242.323 L 1215.500 202.646 1230 233.313 L 1244.500 263.980 1252.500 263.963 L 1260.500 263.946 1275 233.231 L 1289.500 202.516 1289.761 242.258 L 1290.023 282 1299.011 282 L 1308 282 1308 234.975 L 1308 187.950 1291.945 188.225 L 1275.889 188.500 1264.577 212.313 C 1258.356 225.410, 1252.868 236.042, 1252.383 235.939 C 1251.897 235.837, 1246.447 225.121, 1240.272 212.126 L 1229.043 188.500 1213.022 188.225 L 1197 187.950 1197 234.975 M 1324.740 188.594 C 1324.374 188.960, 1324.050 210.126, 1324.020 235.629 L 1323.965 282 1333.482 282 L 1343 282 1343 263.500 L 1343 245 1360.500 245 L 1378 245 1378 263.500 L 1378 282 1387 282 L 1396 282 1396 235 L 1396 188 1387 188 L 1378 188 1378 207 L 1378 226 1360.522 226 L 1343.044 226 1342.772 207.250 L 1342.500 188.500 1333.953 188.214 C 1329.252 188.057, 1325.106 188.228, 1324.740 188.594 M 1412.703 188.631 C 1412.316 189.017, 1412 210.212, 1412 235.731 L 1412 282.129 1436.250 281.814 C 1460.271 281.503, 1460.548 281.475, 1465.520 278.850 C 1484.822 268.659, 1489.758 245.010, 1476.279 227.305 C 1470.012 219.074, 1458.604 215, 1441.819 215 L 1431.058 215 1430.779 201.750 L 1430.500 188.500 1421.953 188.214 C 1417.252 188.057, 1413.089 188.244, 1412.703 188.631 M 1492.703 188.631 C 1492.316 189.017, 1492 210.183, 1492 235.667 L 1492 282 1501.510 282 L 1511.020 282 1510.760 235.250 L 1510.500 188.500 1501.953 188.214 C 1497.252 188.057, 1493.089 188.244, 1492.703 188.631 M 1527 197.500 L 1527 207.026 1561.750 206.763 L 1596.500 206.500 1596.500 197.500 L 1596.500 188.500 1561.750 188.237 L 1527 187.974 1527 197.500 M 296 231.566 L 296 270.133 307.579 256.316 C 313.948 248.717, 320.135 241.369, 321.329 239.987 C 335.687 223.365, 348.867 206.903, 349.029 205.390 C 349.140 204.351, 349.178 201.137, 349.115 198.250 L 349 193 322.500 193 L 296 193 296 231.566 M 584 295.011 L 584 397.021 627.680 396.761 L 671.359 396.500 679.430 386.920 C 683.868 381.651, 693.237 370.531, 700.250 362.208 C 707.263 353.885, 713 346.833, 713 346.537 C 713 346.242, 695.900 346, 675 346 L 637 346 637 269.500 L 637 193 610.500 193 L 584 193 584 295.011 M 1111 235.500 L 1111 245 1131.932 245 L 1152.864 245 1160.432 236.080 C 1164.594 231.174, 1168 226.899, 1168 226.580 C 1168 226.261, 1155.175 226, 1139.500 226 L 1111 226 1111 235.500 M 1527 235.500 L 1527 245 1547.986 245 L 1568.973 245 1576.236 236.440 C 1580.231 231.732, 1583.650 227.457, 1583.833 226.940 C 1584.036 226.368, 1572.986 226, 1555.583 226 L 1527 226 1527 235.500 M 334 249.737 C 326.025 259.310, 318.825 267.901, 318 268.827 C 317.175 269.753, 311.887 275.987, 306.250 282.680 L 296 294.850 296 345.925 L 296 397 322.488 397 L 348.977 397 349.238 315.404 C 349.382 270.526, 349.275 233.476, 349 233.070 C 348.725 232.663, 341.975 240.164, 334 249.737 M 1431 249 L 1431 264 1442.614 264 C 1456.513 264, 1460.689 262.341, 1464 255.500 C 1466.534 250.265, 1466.525 246.949, 1463.960 241.921 C 1460.524 235.187, 1457.441 234.008, 1443.250 234.004 L 1431 234 1431 249 M 1111 273 L 1111 282 1145.500 282 L 1180 282 1180 273 L 1180 264 1145.500 264 L 1111 264 1111 273 M 1527 272.987 L 1527 282 1562.039 282 L 1597.078 282 1596.789 273.250 L 1596.500 264.500 1561.750 264.237 L 1527 263.974 1527 272.987 M 1140.174 305.090 C 1132.778 306.076, 1123.077 311.108, 1118.042 316.570 C 1115.725 319.084, 1112.405 324.147, 1110.665 327.820 L 1107.500 334.500 1107.507 354.500 C 1107.514 373.273, 1107.661 374.868, 1109.916 380.500 C 1113.266 388.870, 1123.232 398.803, 1131.500 402.012 C 1139.366 405.065, 1151.189 405.289, 1158.739 402.528 C 1168.882 398.820, 1178.458 389.416, 1182.408 379.286 C 1184.830 373.076, 1185.859 346.043, 1184.028 336.735 C 1179.837 315.433, 1161.555 302.240, 1140.174 305.090 M 1304.024 305.603 C 1296.431 307.644, 1291.126 310.988, 1285.204 317.467 C 1277.139 326.291, 1275.710 331.176, 1275.219 351.600 C 1274.892 365.176, 1275.144 370.013, 1276.439 375.067 C 1279.367 386.498, 1287.111 395.815, 1297.880 400.865 C 1302.834 403.188, 1304.745 403.500, 1314 403.500 C 1323.307 403.500, 1325.152 403.195, 1330.236 400.812 C 1341.243 395.653, 1349.614 384.584, 1351.992 372.040 C 1353.326 365.008, 1353.279 343.890, 1351.913 336.434 C 1349.102 321.090, 1337.088 308.567, 1321.791 305.039 C 1315.926 303.686, 1310.520 303.858, 1304.024 305.603 M 768.020 316.750 L 760.764 325.500 776.882 325.775 L 793 326.050 793 364.025 L 793 402 802 402 L 811 402 811 364 L 811 326 824 326 L 837 326 837 317 L 837 308 806.138 308 L 775.276 308 768.020 316.750 M 846 317.013 L 846 326.026 880.750 325.763 L 915.500 325.500 915.789 316.750 L 916.078 308 881.039 308 L 846 308 846 317.013 M 929 308.278 C 929 308.469, 933.786 318.723, 939.635 331.063 C 945.485 343.403, 950.285 353.966, 950.302 354.537 C 950.319 355.107, 945.533 365.701, 939.667 378.079 C 933.800 390.457, 929 400.903, 929 401.292 C 929 401.681, 933.424 402, 938.831 402 L 948.662 402 957.934 382.250 C 963.033 371.387, 967.533 362.148, 967.934 361.719 C 968.334 361.289, 972.991 370.064, 978.282 381.219 L 987.902 401.500 997.951 401.785 C 1003.478 401.942, 1008 401.870, 1008 401.626 C 1008 401.381, 1003.031 390.688, 996.957 377.864 L 985.914 354.547 992.609 340.523 C 996.291 332.811, 1001.245 322.337, 1003.619 317.250 L 1007.934 308 997.913 308 L 987.892 308 979.166 326.250 C 974.366 336.288, 969.986 345.563, 969.430 346.862 C 968.530 348.968, 967.384 347.028, 958.805 328.862 L 949.189 308.500 939.094 308.215 C 933.542 308.058, 929 308.087, 929 308.278 M 1021.240 354.750 L 1021.500 401.500 1030.221 401.789 C 1040.889 402.141, 1040.258 403.530, 1039.819 380.654 L 1039.500 363.997 1056.728 363.999 L 1073.956 364 1074.228 382.750 L 1074.500 401.500 1083.500 401.500 L 1092.500 401.500 1092.760 354.750 L 1093.020 308 1083.510 308 L 1074 308 1074 326.500 L 1074 345 1057 345 L 1040 345 1039.863 328.250 C 1039.788 319.038, 1039.729 310.712, 1039.733 309.750 C 1039.739 308.207, 1038.629 308, 1030.360 308 L 1020.980 308 1021.240 354.750 M 1199.232 353.750 C 1193.046 378.913, 1187.988 400.079, 1187.992 400.788 C 1187.998 401.764, 1190.207 402.006, 1197.144 401.788 L 1206.287 401.500 1215.524 364 L 1224.761 326.500 1229.658 326.205 L 1234.554 325.911 1243.858 363.955 L 1253.162 402 1262.022 402 C 1266.895 402, 1271.067 401.663, 1271.293 401.250 C 1271.519 400.837, 1266.622 380.025, 1260.412 355 C 1254.201 329.975, 1249.092 309.163, 1249.060 308.750 C 1249.027 308.337, 1240.333 308, 1229.740 308 L 1210.479 308 1199.232 353.750 M 1367 355 L 1367 402 1376 402 L 1385 402 1385 364 L 1385 326 1395.340 326 L 1405.681 326 1412.145 318.250 C 1415.701 313.988, 1418.949 309.938, 1419.364 309.250 C 1419.960 308.262, 1414.542 308, 1393.559 308 L 1367 308 1367 355 M 1425.240 354.750 L 1425.500 401.500 1441.210 401.775 C 1456.621 402.045, 1456.947 402.007, 1458.307 399.775 C 1459.069 398.524, 1465.049 386.131, 1471.596 372.235 L 1483.500 346.971 1484 374.235 L 1484.500 401.500 1493.500 401.500 L 1502.500 401.500 1502.760 354.716 L 1503.020 307.932 1492.286 308.216 L 1481.552 308.500 1463.026 347.427 L 1444.500 386.354 1444.238 347.177 L 1443.977 308 1434.479 308 L 1424.980 308 1425.240 354.750 M 1519 355.025 L 1519 402.050 1535.196 401.775 L 1551.391 401.500 1564.679 373.518 L 1577.968 345.535 1578.234 373.518 L 1578.500 401.500 1587.500 401.500 L 1596.500 401.500 1596.760 354.750 L 1597.020 308 1586.234 308 L 1575.449 308 1557.129 346.750 C 1547.053 368.063, 1538.402 385.927, 1537.905 386.450 C 1537.364 387.017, 1537 371.413, 1537 347.700 L 1537 308 1528 308 L 1519 308 1519 355.025 M 1137.020 325.250 C 1127.187 330.274, 1124.418 338.158, 1125.310 358.588 C 1125.920 372.570, 1127.065 376.030, 1132.787 381.193 C 1137.349 385.310, 1141.565 386.488, 1149.131 385.761 C 1154.662 385.230, 1157.834 383.284, 1162.442 377.596 L 1165.500 373.821 1165.812 355.992 C 1166.095 339.870, 1165.936 337.798, 1164.160 334.332 C 1158.894 324.062, 1147.082 320.109, 1137.020 325.250 M 1304 325.251 C 1301.046 326.829, 1298.478 329.305, 1296.525 332.459 C 1293.680 337.052, 1293.532 337.856, 1293.154 350.803 C 1292.908 359.208, 1293.216 366.387, 1293.965 369.734 C 1298.214 388.719, 1324.057 391.948, 1332.110 374.500 C 1333.668 371.125, 1333.957 367.923, 1333.962 354 C 1333.968 335.316, 1333.158 332.637, 1325.694 326.625 C 1322.462 324.022, 1320.877 323.505, 1315.194 323.203 C 1309.607 322.905, 1307.755 323.244, 1304 325.251 M 846.667 345.667 C 846.300 346.033, 846 350.308, 846 355.167 L 846 364 867.250 363.955 L 888.500 363.910 895.500 355.436 C 899.350 350.776, 902.650 346.521, 902.833 345.981 C 903.210 344.872, 847.772 344.561, 846.667 345.667 M 846 392.500 L 846 402.026 880.750 401.763 L 915.500 401.500 915.500 392.500 L 915.500 383.500 880.750 383.237 L 846 382.974 846 392.500" stroke="none" fill="#ffffff" fill-rule="evenodd"/><path d="M 460.500 185.621 C 438.024 187.638, 419.748 194.207, 402.500 206.469 C 347.763 245.384, 340.887 323.258, 387.959 371.155 C 404.032 387.510, 426.271 399.123, 449 403.030 C 459.138 404.773, 479.615 404.572, 489.725 402.631 C 498.717 400.904, 514.568 395.302, 521.870 391.270 C 540.846 380.791, 558.187 363.491, 567.602 345.647 C 571.113 338.992, 578 320.299, 578 317.424 C 578 316.229, 573.899 316, 552.513 316 L 527.027 316 525.586 319.447 C 521.023 330.370, 508.733 343.260, 497.601 348.800 C 469.954 362.560, 437.715 355.810, 419.091 332.364 C 401.580 310.319, 401.580 279.681, 419.091 257.636 C 437.715 234.190, 469.954 227.440, 497.601 241.200 C 508.733 246.740, 521.023 259.630, 525.586 270.553 L 527.027 274 552.593 274 L 578.159 274 577.466 270.750 C 575.052 259.425, 568.738 244.940, 561.681 234.537 C 556.275 226.568, 543.229 213.100, 535.019 207.014 C 523.054 198.144, 506.204 190.805, 490.500 187.623 C 482.984 186.101, 467.027 185.036, 460.500 185.621 M 918.750 188.737 C 921.638 188.939, 926.362 188.939, 929.250 188.737 C 932.138 188.535, 929.775 188.370, 924 188.370 C 918.225 188.370, 915.862 188.535, 918.750 188.737 M 1071 188.742 L 1101 189.029 1101 197.485 L 1101 205.940 1088.250 206.269 L 1075.500 206.597 1088.500 206.549 L 1101.500 206.500 1101.500 197.500 L 1101.500 188.500 1071.250 188.478 L 1040.999 188.455 1071 188.742 M 1127.685 188.748 C 1137.138 188.912, 1152.888 188.913, 1162.685 188.749 C 1172.483 188.585, 1164.750 188.451, 1145.500 188.450 C 1126.250 188.450, 1118.233 188.584, 1127.685 188.748 M 1202 188.677 C 1215.307 189.399, 1229.776 189.438, 1229.348 188.750 C 1229.092 188.338, 1221.596 188.085, 1212.691 188.189 C 1203.786 188.293, 1198.975 188.513, 1202 188.677 M 1275.652 188.750 C 1275.395 189.162, 1280.206 189.382, 1286.343 189.238 C 1306.570 188.762, 1308.739 188.381, 1292.309 188.189 C 1283.404 188.085, 1275.908 188.338, 1275.652 188.750 M 1324.667 188.667 C 1324.300 189.033, 1324.007 189.821, 1324.015 190.417 C 1324.025 191.092, 1324.320 191.045, 1324.797 190.294 C 1325.266 189.557, 1328.857 188.956, 1334.032 188.748 L 1342.500 188.407 1333.917 188.204 C 1329.196 188.092, 1325.033 188.300, 1324.667 188.667 M 1412.473 189.211 C 1412.201 189.920, 1412.101 211.200, 1412.250 236.500 L 1412.521 282.500 1412.760 235.750 L 1413 189 1421.471 189 L 1429.942 189 1430.221 202.250 L 1430.500 215.500 1442.500 215.552 L 1454.500 215.604 1442.779 215.270 L 1431.058 214.937 1430.779 201.719 L 1430.500 188.500 1421.734 188.211 C 1415.285 187.998, 1412.837 188.262, 1412.473 189.211 M 1492.458 189.250 C 1492.194 189.938, 1492.101 211.200, 1492.250 236.500 L 1492.521 282.500 1492.760 235.679 L 1493 188.858 1501.908 189.179 C 1506.807 189.356, 1510.605 189.162, 1510.349 188.750 C 1509.513 187.407, 1492.987 187.869, 1492.458 189.250 M 1561.250 188.743 L 1596 189.026 1596 197.500 L 1596 205.974 1561.500 206.257 L 1526.999 206.539 1561.750 206.520 L 1596.500 206.500 1596.500 197.500 L 1596.500 188.500 1561.500 188.480 L 1526.500 188.460 1561.250 188.743 M 1324.461 237 C 1324.461 262.025, 1324.590 272.263, 1324.749 259.750 C 1324.908 247.238, 1324.908 226.763, 1324.749 214.250 C 1324.590 201.738, 1324.461 211.975, 1324.461 237 M 296 231.566 L 296 270.133 307.579 256.316 C 313.948 248.717, 320.135 241.369, 321.329 239.987 C 335.687 223.365, 348.867 206.903, 349.029 205.390 C 349.140 204.351, 349.178 201.137, 349.115 198.250 L 349 193 322.500 193 L 296 193 296 231.566 M 584 295.011 L 584 397.021 627.680 396.761 L 671.359 396.500 679.430 386.920 C 683.868 381.651, 693.237 370.531, 700.250 362.208 C 707.263 353.885, 713 346.833, 713 346.537 C 713 346.242, 695.900 346, 675 346 L 637 346 637 269.500 L 637 193 610.500 193 L 584 193 584 295.011 M 1033.797 206.745 C 1038.361 206.930, 1045.561 206.929, 1049.797 206.742 C 1054.034 206.555, 1050.300 206.404, 1041.500 206.405 C 1032.700 206.406, 1029.234 206.559, 1033.797 206.745 M 1127.685 206.748 C 1137.138 206.912, 1152.888 206.913, 1162.685 206.749 C 1172.483 206.585, 1164.750 206.451, 1145.500 206.450 C 1126.250 206.450, 1118.233 206.584, 1127.685 206.748 M 334 249.737 C 326.025 259.310, 318.825 267.901, 318 268.827 C 317.175 269.753, 311.887 275.987, 306.250 282.680 L 296 294.850 296 345.925 L 296 397 322.488 397 L 348.977 397 349.238 315.404 C 349.382 270.526, 349.275 233.476, 349 233.070 C 348.725 232.663, 341.975 240.164, 334 249.737 M 1430.440 234.296 C 1430.166 235.009, 1430.081 242.096, 1430.251 250.046 L 1430.559 264.500 1430.780 249.284 L 1431 234.068 1441.750 233.746 L 1452.500 233.425 1441.719 233.212 C 1433.655 233.054, 1430.812 233.327, 1430.440 234.296 M 1121.250 244.746 C 1127.162 244.923, 1136.838 244.923, 1142.750 244.746 C 1148.662 244.569, 1143.825 244.425, 1132 244.425 C 1120.175 244.425, 1115.338 244.569, 1121.250 244.746 M 1351.199 244.744 C 1355.984 244.927, 1364.084 244.928, 1369.199 244.746 C 1374.315 244.564, 1370.400 244.414, 1360.500 244.413 C 1350.600 244.412, 1346.415 244.561, 1351.199 244.744 M 1537.250 244.746 C 1543.162 244.923, 1552.838 244.923, 1558.750 244.746 C 1564.662 244.569, 1559.825 244.425, 1548 244.425 C 1536.175 244.425, 1531.338 244.569, 1537.250 244.746 M 1074.225 326.250 L 1074 345 1057.024 345 L 1040.048 345 1039.737 328.499 L 1039.425 311.998 1039.463 328.749 L 1039.500 345.500 1056.772 345.774 C 1070.269 345.988, 1074.154 345.762, 1074.546 344.740 C 1074.822 344.021, 1074.914 335.348, 1074.749 325.466 L 1074.451 307.500 1074.225 326.250 M 1092.240 354.250 L 1092 401 1083.522 401 L 1075.044 401 1074.739 382.750 L 1074.434 364.500 1074.467 383 L 1074.500 401.500 1083.266 401.789 C 1089.715 402.002, 1092.163 401.738, 1092.527 400.789 C 1092.799 400.080, 1092.899 378.800, 1092.750 353.500 L 1092.479 307.500 1092.240 354.250 M 1425.485 354.750 L 1425.500 401.500 1441.500 401.541 L 1457.500 401.581 1441.760 401.265 L 1426.020 400.949 1425.745 354.475 L 1425.470 308 1425.485 354.750 M 1443 348 C 1443 370.183, 1443.245 388.088, 1443.545 387.788 C 1444.213 387.120, 1444.147 308.814, 1443.478 308.145 C 1443.215 307.882, 1443 325.817, 1443 348 M 1596.240 354.211 L 1596 400.922 1587.250 401.255 L 1578.500 401.589 1587.281 401.794 C 1593.543 401.941, 1596.200 401.641, 1596.542 400.750 C 1596.806 400.063, 1596.899 378.800, 1596.750 353.500 L 1596.479 307.500 1596.240 354.211 M 1184.405 354.500 C 1184.406 363.300, 1184.559 366.766, 1184.745 362.203 C 1184.930 357.639, 1184.929 350.439, 1184.742 346.203 C 1184.555 341.966, 1184.404 345.700, 1184.405 354.500 M 1352.400 354.500 C 1352.401 362.750, 1352.556 365.992, 1352.744 361.704 C 1352.932 357.417, 1352.931 350.667, 1352.742 346.704 C 1352.552 342.742, 1352.399 346.250, 1352.400 354.500 M 1166.395 354.500 C 1166.396 362.200, 1166.553 365.218, 1166.743 361.206 C 1166.934 357.195, 1166.932 350.895, 1166.741 347.206 C 1166.549 343.518, 1166.393 346.800, 1166.395 354.500 M 1334.389 354.500 C 1334.390 361.650, 1334.550 364.444, 1334.742 360.708 C 1334.935 356.973, 1334.934 351.123, 1334.739 347.708 C 1334.545 344.294, 1334.387 347.350, 1334.389 354.500 M 860.750 345.748 C 868.587 345.917, 881.413 345.917, 889.250 345.748 C 897.087 345.579, 890.675 345.441, 875 345.441 C 859.325 345.441, 852.913 345.579, 860.750 345.748 M 1484 345.331 C 1483.725 345.605, 1483.725 358.356, 1484 373.665 L 1484.500 401.500 1493 401.558 L 1501.500 401.617 1493.266 401.270 L 1485.031 400.923 1484.766 372.877 C 1484.619 357.452, 1484.275 345.056, 1484 345.331 M 1039.411 383 C 1039.411 392.625, 1039.561 396.563, 1039.745 391.750 C 1039.928 386.938, 1039.928 379.063, 1039.745 374.250 C 1039.561 369.438, 1039.411 373.375, 1039.411 383 M 880.250 383.743 L 915 384.026 915 392.500 L 915 400.974 880.500 401.257 L 845.999 401.539 880.750 401.520 L 915.500 401.500 915.500 392.500 L 915.500 383.500 880.500 383.480 L 845.500 383.460 880.250 383.743 M 987.655 401.250 C 987.909 401.663, 992.591 402, 998.059 402 C 1003.527 402, 1008 401.663, 1008 401.250 C 1008 400.837, 1003.318 400.500, 997.595 400.500 C 991.873 400.500, 987.400 400.837, 987.655 401.250 M 1197 401 L 1187.500 401.617 1196.691 401.809 C 1201.957 401.918, 1206.146 401.573, 1206.500 401 C 1206.840 400.450, 1206.979 400.086, 1206.809 400.191 C 1206.639 400.297, 1202.225 400.661, 1197 401 M 1262 401 L 1252.500 401.617 1261.691 401.809 C 1266.957 401.918, 1271.146 401.573, 1271.500 401 C 1271.840 400.450, 1271.979 400.086, 1271.809 400.191 C 1271.639 400.297, 1267.225 400.661, 1262 401 M 933.750 401.737 C 936.638 401.939, 941.362 401.939, 944.250 401.737 C 947.138 401.535, 944.775 401.370, 939 401.370 C 933.225 401.370, 930.862 401.535, 933.750 401.737 M 1526.750 401.744 C 1531.287 401.929, 1538.713 401.929, 1543.250 401.744 C 1547.787 401.559, 1544.075 401.407, 1535 401.407 C 1525.925 401.407, 1522.213 401.559, 1526.750 401.744" stroke="none" fill="#ed2839" fill-rule="evenodd"/><path d="M 800.357 186.068 C 784.438 188.196, 771.061 201.198, 768.087 217.434 C 766.721 224.890, 766.674 246.008, 768.008 253.040 C 770.390 265.604, 778.254 276.032, 789.513 281.560 C 794.984 284.246, 796.406 284.500, 806 284.500 C 815.679 284.500, 816.965 284.265, 822.446 281.500 C 833.534 275.906, 842.140 264.554, 843.651 253.530 L 844.272 249 835.247 249 L 826.223 249 825.549 252.590 C 824.692 257.158, 818.014 264.510, 813.314 266.061 C 807.970 267.825, 798.830 266.826, 794.753 264.033 C 790.683 261.244, 787.318 256.597, 785.973 251.905 C 784.697 247.457, 784.728 223.518, 786.016 218.882 C 789.713 205.574, 804.499 199.414, 816.237 206.293 C 820.903 209.028, 826 215.838, 826 219.338 C 826 220.252, 826.337 220.973, 826.750 220.941 C 827.490 220.883, 837.796 208.943, 839.250 206.460 C 840.322 204.628, 833.192 195.978, 827.507 192.212 C 819.456 186.880, 810.108 184.764, 800.357 186.068 M 981.228 186.043 C 969.288 187.727, 958.174 196.190, 952.686 207.775 L 949.500 214.500 949.500 235.500 C 949.500 256.187, 949.540 256.585, 952.180 262.218 C 955.922 270.203, 962.945 277.355, 970.874 281.259 C 976.971 284.260, 978.200 284.500, 987.479 284.500 C 996.240 284.500, 998.213 284.166, 1003.175 281.840 C 1009.962 278.658, 1016.968 272.437, 1020.445 266.504 C 1022.570 262.878, 1026 252.558, 1026 249.790 C 1026 249.355, 1021.999 249, 1017.108 249 C 1008.242 249, 1008.215 249.008, 1007.530 251.750 C 1006.337 256.534, 1002.838 261.147, 998.148 264.121 C 994.481 266.447, 992.485 267, 987.764 267 C 978.610 267, 971.864 262.706, 968.548 254.768 C 966.278 249.337, 966.326 220.238, 968.612 215.700 C 974.954 203.109, 989.988 199.596, 1000.489 208.251 C 1002.573 209.970, 1005.251 213.579, 1006.440 216.271 L 1008.600 221.167 1014.550 214.044 C 1017.823 210.126, 1020.636 206.314, 1020.802 205.573 C 1020.967 204.832, 1018.640 201.565, 1015.629 198.313 C 1009.625 191.828, 1001.913 187.426, 994.879 186.470 C 992.471 186.142, 989.600 185.745, 988.500 185.587 C 987.400 185.429, 984.128 185.634, 981.228 186.043 M 857 235.525 L 857 282.050 873.196 281.775 L 889.391 281.500 902.692 253.500 L 915.993 225.500 915.996 253.750 L 916 282 925 282 L 934 282 934 235.500 L 934 189 923.733 189 L 913.465 189 894.483 229.091 L 875.500 269.181 875.239 229.091 L 874.977 189 865.989 189 L 857 189 857 235.525 M 1033.195 197.475 L 1026.016 205.949 1041.758 206.225 L 1057.500 206.500 1057.762 244.250 L 1058.024 282 1067.012 282 L 1076 282 1076 244 L 1076 206 1088.500 206 L 1101 206 1101 197.500 L 1101 189 1070.687 189 L 1040.373 189 1033.195 197.475 M 1111 197.500 L 1111 206 1145.500 206 L 1180 206 1180 197.500 L 1180 189 1145.500 189 L 1111 189 1111 197.500 M 1197 235.475 L 1197 282 1205.989 282 L 1214.977 282 1215.239 242.031 L 1215.500 202.062 1230.059 232.781 L 1244.617 263.500 1252.482 263.500 L 1260.347 263.500 1274.923 232.716 L 1289.500 201.933 1289.761 241.966 L 1290.023 282 1299.011 282 L 1308 282 1308 235.500 L 1308 189 1291.949 189 L 1275.898 189 1268.202 205.250 C 1263.969 214.188, 1258.689 225.274, 1256.468 229.887 L 1252.430 238.274 1240.877 213.887 L 1229.325 189.500 1213.163 189.225 L 1197 188.950 1197 235.475 M 1325 235.500 L 1325 282 1334 282 L 1343 282 1343 263 L 1343 244 1360.500 244 L 1378 244 1378 263 L 1378 282 1387 282 L 1396 282 1396 235.500 L 1396 189 1387 189 L 1378 189 1378 207.500 L 1378 226 1360.500 226 L 1343 226 1343 207.500 L 1343 189 1334 189 L 1325 189 1325 235.500 M 1413 235.566 L 1413 282.133 1436.250 281.816 C 1457.586 281.526, 1459.885 281.322, 1464.176 279.339 C 1470.801 276.277, 1477.160 270.034, 1480.524 263.290 C 1483.011 258.304, 1483.418 256.320, 1483.453 249 C 1483.486 242.342, 1483.027 239.487, 1481.336 235.824 C 1478.418 229.501, 1471.656 222.382, 1465.540 219.193 C 1460.942 216.795, 1459.186 216.518, 1445.500 216.032 L 1430.500 215.500 1430.221 202.250 L 1429.942 189 1421.471 189 L 1413 189 1413 235.566 M 1493 235.500 L 1493 282.078 1501.750 281.789 L 1510.500 281.500 1510.500 235.500 L 1510.500 189.500 1501.750 189.211 L 1493 188.922 1493 235.500 M 1527 197.500 L 1527 206 1561.500 206 L 1596 206 1596 197.500 L 1596 189 1561.500 189 L 1527 189 1527 197.500 M 1111.667 226.667 C 1111.300 227.033, 1111 231.083, 1111 235.667 L 1111 244 1132.340 244 L 1153.681 244 1160.145 236.250 C 1163.701 231.988, 1166.949 227.938, 1167.364 227.250 C 1167.960 226.262, 1162.275 226, 1140.226 226 C 1124.885 226, 1112.033 226.300, 1111.667 226.667 M 1527.667 226.667 C 1527.300 227.033, 1527 231.083, 1527 235.667 L 1527 244 1548.340 244 L 1569.681 244 1576.145 236.250 C 1579.701 231.988, 1582.949 227.938, 1583.364 227.250 C 1583.960 226.262, 1578.275 226, 1556.226 226 C 1540.885 226, 1528.033 226.300, 1527.667 226.667 M 1430.750 233.574 C 1430.338 233.991, 1430 241.008, 1430 249.167 L 1430 264 1442.852 264 C 1454.537 264, 1456.004 263.796, 1459.001 261.750 C 1465.958 257.001, 1468.034 246.547, 1463.285 240.176 C 1459.308 234.840, 1455.526 233.531, 1443 233.157 C 1436.675 232.968, 1431.162 233.156, 1430.750 233.574 M 1111 273 L 1111 282 1145.500 282 L 1180 282 1180 273 L 1180 264 1145.500 264 L 1111 264 1111 273 M 1527 273 L 1527 282 1561.500 282 L 1596 282 1596 273 L 1596 264 1561.500 264 L 1527 264 1527 273 M 1307.226 305.112 C 1292.178 307.617, 1279.360 320.258, 1276.109 335.799 C 1274.724 342.417, 1274.661 364.941, 1276.008 372.040 C 1278.391 384.609, 1286.282 395.068, 1297.522 400.559 C 1302.907 403.190, 1304.492 403.481, 1313.500 403.490 C 1322.678 403.499, 1324.053 403.238, 1330.225 400.314 C 1338.291 396.493, 1344.829 390.086, 1348.693 382.217 C 1351.437 376.629, 1351.507 376.054, 1351.825 356.764 C 1352.081 341.224, 1351.823 335.904, 1350.614 331.744 C 1345.344 313.617, 1326.313 301.935, 1307.226 305.112 M 1134.254 306.404 C 1123.530 309.896, 1114.046 319.006, 1109.953 329.748 C 1108.211 334.319, 1107.658 338.374, 1107.257 349.500 C 1106.651 366.352, 1107.886 375.295, 1111.967 383.584 C 1125.599 411.274, 1166.535 411.009, 1180.250 383.141 L 1183.500 376.537 1183.500 354.519 L 1183.500 332.500 1180.556 326.500 C 1176.890 319.027, 1169.798 312.007, 1162.265 308.395 C 1157.543 306.131, 1154.872 305.576, 1147.500 305.326 C 1141.755 305.131, 1136.964 305.521, 1134.254 306.404 M 768.191 316.750 L 760.984 325.500 776.992 325.775 L 793 326.050 793 363.525 L 793 401 802 401 L 811 401 811 363.500 L 811 326 823.500 326 L 836 326 836 317 L 836 308 805.699 308 L 775.399 308 768.191 316.750 M 846 317 L 846 326 880.500 326 L 915 326 915 317 L 915 308 880.500 308 L 846 308 846 317 M 929.299 308.750 C 929.528 309.163, 934.512 319.660, 940.374 332.078 L 951.034 354.655 943.911 369.578 C 939.994 377.785, 935.058 388.228, 932.943 392.784 L 929.097 401.069 939.045 400.784 L 948.992 400.500 958.729 380.092 L 968.466 359.685 972.135 367.592 C 974.153 371.942, 978.525 381.238, 981.851 388.250 L 987.899 401 997.450 401 C 1002.702 401, 1007.002 400.663, 1007.003 400.250 C 1007.005 399.837, 1002.238 389.445, 996.409 377.156 L 985.812 354.811 988.405 349.031 C 989.832 345.853, 994.811 335.305, 999.470 325.591 L 1007.941 307.931 997.838 308.215 L 987.735 308.500 978.189 328.771 C 972.938 339.920, 968.345 348.695, 967.981 348.271 C 967.618 347.847, 963.127 338.613, 958 327.750 L 948.680 308 938.781 308 C 933.337 308, 929.069 308.337, 929.299 308.750 M 1021 354.500 L 1021 401 1030 401 L 1039 401 1039 382.500 L 1039 364 1057 364 L 1075 364 1075 382.500 L 1075 401 1083.500 401 L 1092 401 1092 354.500 L 1092 308 1083.522 308 L 1075.044 308 1074.772 326.750 L 1074.500 345.500 1057 345.500 L 1039.500 345.500 1039.228 326.750 L 1038.956 308 1029.978 308 L 1021 308 1021 354.500 M 1210.494 309.250 C 1209.999 310.644, 1188 400.069, 1188 400.685 C 1188 400.899, 1192.110 400.946, 1197.134 400.788 L 1206.269 400.500 1215.411 363.500 L 1224.553 326.500 1229.656 326.202 L 1234.759 325.904 1243.962 363.452 L 1253.164 401 1262.082 401 C 1267.366 401, 1271 400.592, 1271 399.999 C 1271 399.449, 1266.050 378.830, 1260 354.180 C 1253.950 329.529, 1249 309.055, 1249 308.680 C 1249 308.306, 1240.436 308, 1229.969 308 C 1215.647 308, 1210.827 308.309, 1210.494 309.250 M 1367 354.500 L 1367 401 1376 401 L 1385 401 1385 363.500 L 1385 326 1395.301 326 L 1405.601 326 1411.551 318.812 C 1414.823 314.858, 1418.088 310.808, 1418.807 309.812 C 1420.059 308.075, 1419.009 308, 1393.557 308 L 1367 308 1367 354.500 M 1426 354.500 L 1426 401 1441.823 401 L 1457.645 401 1470.502 373.750 C 1477.574 358.762, 1483.729 346.072, 1484.180 345.550 C 1484.631 345.027, 1485 357.290, 1485 372.800 L 1485 401 1494 401 L 1503 401 1503 354.466 L 1503 307.932 1492.361 308.216 L 1481.722 308.500 1463.111 347.692 C 1452.875 369.248, 1444.162 387.210, 1443.750 387.609 C 1443.338 388.007, 1443 370.258, 1443 348.167 L 1443 308 1434.500 308 L 1426 308 1426 354.500 M 1519 354.500 L 1519 401 1535.250 400.990 L 1551.500 400.979 1564.500 373.421 L 1577.500 345.862 1577.766 373.431 L 1578.032 401 1587.016 401 L 1596 401 1596 354.500 L 1596 308 1585.750 308.036 L 1575.500 308.071 1562.500 335.751 C 1555.350 350.974, 1546.723 369.071, 1543.329 375.965 L 1537.157 388.500 1537.079 348.250 L 1537 308 1528 308 L 1519 308 1519 354.500 M 1308.994 322.883 C 1301.027 325.469, 1296.161 330.227, 1294.002 337.542 C 1293.231 340.152, 1292.931 346.880, 1293.154 356.542 C 1293.470 370.197, 1293.711 371.869, 1295.926 375.736 C 1299.195 381.442, 1304.792 385.177, 1310.962 385.770 C 1319.162 386.558, 1322.726 385.369, 1328.012 380.083 C 1334.218 373.877, 1335.418 368.630, 1334.799 350.394 C 1334.392 338.373, 1334.130 336.897, 1331.651 332.667 C 1327.241 325.142, 1316.423 320.471, 1308.994 322.883 M 1137.500 324.400 C 1133.895 325.989, 1129.425 330.345, 1127.157 334.479 C 1125.798 336.957, 1125.500 340.554, 1125.500 354.500 C 1125.500 370.778, 1125.606 371.689, 1128 375.959 C 1135.778 389.833, 1155.646 389.993, 1163.701 376.247 C 1166.263 371.876, 1166.483 370.604, 1166.849 358.102 C 1167.342 341.213, 1166.152 335.282, 1161.156 329.745 C 1159.145 327.517, 1156.052 325.088, 1154.282 324.347 C 1150.215 322.645, 1141.420 322.673, 1137.500 324.400 M 846.211 354.750 L 846.500 363.500 867.165 363.770 L 887.830 364.040 895.483 355.020 L 903.136 346 874.529 346 L 845.922 346 846.211 354.750 M 846 392.500 L 846 401 880.500 401 L 915 401 915 392.500 L 915 384 880.500 384 L 846 384 846 392.500" stroke="none" fill="#010101" fill-rule="evenodd"/></svg>